<?xml version="1.0" encoding="iso-8859-1"?>
<!-- Uploaded to: SVG Repo, www.svgrepo.com, Generator: SVG Repo Mixer Tools -->
<!DOCTYPE svg PUBLIC "-//W3C//DTD SVG 1.1//EN" "http://www.w3.org/Graphics/SVG/1.1/DTD/svg11.dtd">
<svg fill="#000000" version="1.1" id="Capa_1" xmlns="http://www.w3.org/2000/svg" xmlns:xlink="http://www.w3.org/1999/xlink" 
	 width="800px" height="800px" viewBox="0 0 462.475 462.475"
	 xml:space="preserve">
<g>
	<g>
		<path d="M396.153,54.892c-3.066-2.738-7.285-3.792-11.276-2.824c-1.056,0.257-26.186,6.385-54.439,15.646
			c-39.979,13.106-64.604,25.292-75.288,37.251c-12.77,14.298-18.511,32.283-16.166,50.644c2.192,17.169,11.31,33.688,25.668,46.514
			c14.642,13.076,32.409,20.277,50.032,20.279h0.004c18.139,0,35.035-7.731,47.572-21.768c10.683-11.959,20.02-37.801,28.545-79.001
			c6.025-29.116,9.288-54.776,9.424-55.854C400.742,61.701,399.217,57.631,396.153,54.892z M343.614,183.98
			c-7.844,8.78-17.846,13.422-28.928,13.422h-0.004c-11.472-0.001-23.325-4.946-33.379-13.925
			c-16.813-15.018-26.334-40.78-7.51-61.857c11.963-13.393,61.325-30.248,99.021-40.596
			C366.778,119.635,355.586,170.576,343.614,183.98z"/>
		<path d="M260.151,292.141c-1.056,0.257-26.186,6.385-54.438,15.646c-39.979,13.106-64.606,25.291-75.289,37.25
			c-12.77,14.299-18.511,32.283-16.166,50.645c2.193,17.169,11.31,33.688,25.669,46.513c14.64,13.077,32.407,20.279,50.032,20.281
			h0.006c18.138,0,35.032-7.73,47.568-21.769c10.684-11.959,20.021-37.801,28.546-79.001c6.025-29.115,9.287-54.775,9.423-55.854
			c0.516-4.078-1.009-8.148-4.073-10.887C268.361,292.227,264.142,291.174,260.151,292.141z M218.887,424.053
			c-7.842,8.78-17.844,13.422-28.924,13.422c0,0-0.003,0-0.004,0c-11.473-0.001-23.327-4.946-33.38-13.928
			c-9.871-8.814-16.095-19.837-17.524-31.034c-1.434-11.225,2.028-21.882,10.013-30.821c11.963-13.393,61.326-30.247,99.021-40.595
			C242.052,359.709,230.861,410.648,218.887,424.053z"/>
		<path d="M382.17,233.377c-0.62,0.15-15.422,3.761-32.036,9.207c-32.149,10.539-41.668,18.253-46.031,23.138
			c-16.584,18.566-14.03,46.021,5.938,63.858c9.471,8.457,21.035,13.116,32.566,13.117h0.004c12.054,0,23.258-5.113,31.552-14.397
			c4.363-4.886,10.956-15.211,17.813-48.343c3.543-17.122,5.465-32.234,5.543-32.869c0.516-4.078-1.008-8.148-4.073-10.888
			C390.381,233.463,386.163,232.408,382.17,233.377z M355.518,311.645c-3.587,4.017-7.93,6.053-12.906,6.053h-0.002
			c-5.381-0.001-11.033-2.401-15.915-6.763c-8.154-7.285-12.538-18.941-3.947-28.56c4.845-5.424,25.637-13.463,47.146-19.806
			C366.012,284.657,360.362,306.222,355.518,311.645z"/>
		<path d="M138.367,300.809c18.14,0,35.034-7.73,47.571-21.768c10.682-11.961,20.02-37.803,28.545-79.001
			c6.025-29.116,9.287-54.776,9.423-55.854c0.515-4.078-1.009-8.148-4.074-10.887c-3.066-2.738-7.283-3.792-11.276-2.824
			c-1.056,0.257-26.186,6.385-54.439,15.646c-39.979,13.106-64.605,25.292-75.287,37.251
			c-12.771,14.298-18.513,32.283-16.168,50.643c2.193,17.169,11.309,33.688,25.669,46.516c14.64,13.075,32.409,20.277,50.032,20.278
			C138.365,300.809,138.365,300.809,138.367,300.809z M87.46,230.847c-1.434-11.224,2.029-21.881,10.014-30.82
			c11.961-13.392,61.324-30.246,99.018-40.595c-6.042,38.618-17.236,89.562-29.198,102.955
			c-7.842,8.781-17.844,13.422-28.925,13.422c-0.001,0-0.003,0-0.003,0c-11.474-0.001-23.329-4.946-33.381-13.925
			C95.113,253.067,88.889,242.046,87.46,230.847z"/>
		<path d="M176.216,93.101c9.138,8.162,20.304,12.657,31.445,12.658h0.003c11.663,0,22.504-4.946,30.524-13.927
			c13.629-15.259,20.605-63.383,22.419-77.769c0.516-4.078-1.009-8.148-4.074-10.886c-3.065-2.739-7.287-3.792-11.274-2.825
			c-14.091,3.421-61.126,15.767-74.755,31.025C154.467,49.335,156.923,75.87,176.216,93.101z M189.15,48.032
			c4.354-4.875,23.608-12.41,43.792-18.437c-3.714,20.725-9.035,40.699-13.397,45.584c-3.308,3.702-7.304,5.58-11.88,5.58h-0.001
			c-4.989-0.001-10.243-2.239-14.794-6.304C185.305,67.7,181.222,56.909,189.15,48.032z"/>
	</g>
</g>
</svg>